<?xml version='1.0' encoding='utf-8'?>
<svg xmlns="http://www.w3.org/2000/svg" width="1920" height="1080" viewBox="0 0 1920 1080" data-theme="dark">
  <style>
        @font-face {
            font-family: 'Inter';
            src: url('assets/fonts/Inter-Regular.ttf') format('truetype');
            font-weight: 400;
            font-style: normal;
            font-display: swap;
        }
        @font-face {
            font-family: 'Inter';
            src: url('assets/fonts/Inter-Bold.ttf') format('truetype');
            font-weight: 600;
            font-style: normal;
            font-display: swap;
        }
        @font-face {
            font-family: 'Inter';
            src: url('assets/fonts/Inter-Bold.ttf') format('truetype');
            font-weight: 800;
            font-style: normal;
            font-display: swap;
        }
        
:root {
    --background: #0f172a;
    --panel: #1e293b;
    --primary-text: #f1f5f9;
    --muted-text: #94a3b8;
    --inverse-text: #0f172a;
    --border: #334155;
    --shadow-color: #000000;
    --icon-pad-bg: #1e293b;
    --art-glow: #7dd3fc;
    --art-glow-opacity: 0.18;
    --art-sheen: #ffffff;
    --art-sheen-opacity: 0.18;
    --art-shadow: #000000;
    --art-shadow-opacity: 0.28;
    --art-muted-line: #64748b;
    --art-panel-tint: #1e293b;
    --font-family: 'Inter', 'Segoe UI', 'Kalam', Roboto, Helvetica, Arial, sans-serif;
    --radius-xl: 16px;
    --font-family-headline: 'Inter', 'Segoe UI', 'Kalam', Roboto, Helvetica, Arial, sans-serif;
    --font-family-body: 'Inter', 'Segoe UI', 'Kalam', Roboto, Helvetica, Arial, sans-serif;
    --font-heading: 'Inter', 'Segoe UI', 'Kalam', Roboto, Helvetica, Arial, sans-serif;
    --font-body: 'Inter', 'Segoe UI', 'Kalam', Roboto, Helvetica, Arial, sans-serif;
    --font-size-h1: 56px;
    --font-size-h2: 40px;
    --font-size-h3: 28px;
    --font-size-body: 24px;
    --font-size-caption: 18px;
    --secondary-text: var(--muted-text);
    --panel-border: var(--border);
    --font-weight-normal: 400;
    --font-weight-medium: 500;
    --font-weight-semibold: 600;
    --font-weight-bold: 700;
    --spacing-gutter-pct: 0.07;
    --spacing-top-pct: 0.15;
    --spacing-bottom-pct: 0.07;
    --spacing-title-y-pct: 0.055;
    --accent-1: #a5b4fc;
    --accent-2: #34d399;
    --accent-3: #f472b6;
    --accent-4: #fbbf24;
    --accent-5: #38bdf8;
    --accent-6: #c084fc;
    --accent-7: #f87171;
    --accent-8: #2dd4bf;
    --accent-9: #fb923c;
    --accent-10: #e879f9;
}
:root[data-theme="dark"] {
    --background: #0f172a;
    --panel: #1e293b;
    --primary-text: #f1f5f9;
    --muted-text: #94a3b8;
    --inverse-text: #0f172a;
    --border: #334155;
    --shadow-color: #000000;
    --icon-pad-bg: #1e293b;
    --art-glow: #7dd3fc;
    --art-glow-opacity: 0.18;
    --art-sheen: #ffffff;
    --art-sheen-opacity: 0.18;
    --art-shadow: #000000;
    --art-shadow-opacity: 0.28;
    --art-muted-line: #64748b;
    --art-panel-tint: #1e293b;
    --accent-1: #a5b4fc;
    --accent-2: #34d399;
    --accent-3: #f472b6;
    --accent-4: #fbbf24;
    --accent-5: #38bdf8;
    --accent-6: #c084fc;
    --accent-7: #f87171;
    --accent-8: #2dd4bf;
    --accent-9: #fb923c;
    --accent-10: #e879f9;
}
:root[data-theme="light"] {
    --background: #f8fafc;
    --panel: #ffffff;
    --primary-text: #0f172a;
    --muted-text: #64748b;
    --inverse-text: #ffffff;
    --border: #e2e8f0;
    --shadow-color: #000000;
    --icon-pad-bg: #1e293b;
    --art-glow: #0891b2;
    --art-glow-opacity: 0.10;
    --art-sheen: #ffffff;
    --art-sheen-opacity: 0.34;
    --art-shadow: #0f172a;
    --art-shadow-opacity: 0.14;
    --art-muted-line: #94a3b8;
    --art-panel-tint: #f1f5f9;
    --accent-1: #4f46e5;
    --accent-2: #059669;
    --accent-3: #db2777;
    --accent-4: #d97706;
    --accent-5: #0284c7;
    --accent-6: #7c3aed;
    --accent-7: #dc2626;
    --accent-8: #0d9488;
    --accent-9: #ea580c;
    --accent-10: #c026d3;
}</style>
  <rect x="0" y="0" width="1.92E+3" height="1.08E+3" fill="#252a34" stroke="none" id="programmatic_background"/>
  <line id="HEADER_DECOR" x1="960.0" x2="1080.0" y1="135.0" y2="135.0" stroke="var(--accent-1)" stroke-width="6" stroke-linecap="round"/>
  <defs>
    <pattern id="svg76a6ad3d-napkin-hatch" patternUnits="userSpaceOnUse" width="12" height="12">
      <path d="M -3 12 L 12 -3 M 0 15 L 15 0" fill="none" stroke="var(--primary-text)" stroke-width="1" stroke-opacity="0.05"/>
    </pattern>
    <filter id="svg76a6ad3d-shadow" x="-30%" y="-30%" width="160%" height="160%">
      <feDropShadow dx="0" dy="2" stdDeviation="3" flood-color="#000000" flood-opacity="0.08"/>
      <feDropShadow dx="0" dy="6" stdDeviation="10" flood-color="#000000" flood-opacity="0.12"/>
    </filter>
    <marker id="svg76a6ad3d-arrowhead" markerWidth="10" markerHeight="10" refX="9" refY="5" orient="auto">
      <path d="M 0 0 L 10 5 L 0 10 Z" fill="var(--accent-1)"/>
    </marker>
    <filter id="svg76a6ad3d-text-glow" x="-20%" y="-20%" width="140%" height="140%">
      <feDropShadow dx="0" dy="0" stdDeviation="2" flood-color="#000000" flood-opacity="0.4"/>
    </filter>
    <radialGradient id="svg76a6ad3d-universal-edge-vignette" cx="50%" cy="50%" r="72%">
      <stop offset="0%" stop-color="var(--background)" stop-opacity="0"/>
      <stop offset="72%" stop-color="var(--background)" stop-opacity="0.12"/>
      <stop offset="100%" stop-color="var(--primary-text)" stop-opacity="0.08"/>
    </radialGradient>
    <linearGradient id="svg76a6ad3d-universal-surface-sheen" x1="0%" y1="0%" x2="100%" y2="100%">
      <stop offset="0%" stop-color="var(--art-sheen)" stop-opacity="var(--art-sheen-opacity)"/>
      <stop offset="46%" stop-color="var(--art-sheen)" stop-opacity="0.035"/>
      <stop offset="100%" stop-color="var(--art-panel-tint)" stop-opacity="0.14"/>
    </linearGradient>
    <radialGradient id="svg76a6ad3d-universal-icon-aura" cx="50%" cy="42%" r="64%">
      <stop offset="0%" stop-color="var(--art-glow)" stop-opacity="var(--art-glow-opacity)"/>
      <stop offset="100%" stop-color="var(--background)" stop-opacity="0"/>
    </radialGradient>
    <linearGradient id="svg76a6ad3d-myth-card-sheen" x1="0%" y1="0%" x2="100%" y2="100%">
      <stop offset="0%" stop-color="var(--inverse-text)" stop-opacity="0.18"/>
      <stop offset="56%" stop-color="var(--inverse-text)" stop-opacity="0.03"/>
      <stop offset="100%" stop-color="var(--background)" stop-opacity="0.12"/>
    </linearGradient>
  </defs>
  <rect width="100%" height="100%" fill="var(--background)" id="CANVAS_BG"/>
  <rect width="100%" height="100%" fill="url(#svg76a6ad3d-napkin-hatch)"/>
  <rect id="UNIVERSAL_EDGE_VIGNETTE" width="100%" height="100%" fill="url(#svg76a6ad3d-universal-edge-vignette)" opacity="0.62"/>
  <text id="TITLE" x="960.0" y="59" text-anchor="middle" font-weight="800" font-size="56" fill="#f1f5f9" style="font-size: 60px; font-family: Inter, Segoe UI, Kalam, Roboto, Helvetica, Arial, sans-serif; font-weight: 700; letter-spacing:-1.2px;" data-final-font-size="60">
    <tspan x="960.0" dy="68.00px">Preference vs Proof</tspan>
  </text>
  <rect id="TITLE_FRAME" x="134" y="59" width="1652" height="103" fill="none"/>
  <g transform="translate(0, 190) scale(1.0)">
    <path d="M 920 -8 C 950 80 950 720 920 808" stroke="var(--primary-text)" stroke-width="2" stroke-opacity="0.10" fill="none"/>
    <path d="M 1000 -8 C 970 80 970 720 1000 808" stroke="var(--primary-text)" stroke-width="2" stroke-opacity="0.10" fill="none"/>
    <text x="480.0" y="0" text-anchor="middle" font-weight="900" font-size="52" fill="var(--accent-1)">MYTHS</text>
    <text x="1440.0" y="0" text-anchor="middle" font-weight="900" font-size="52" fill="var(--accent-2)">REALITY</text>
    <g transform="translate(480.0, 200.0)">
      <rect id="ITEM_1_ACCENT_BG" x="-400" y="-180.0" width="800" height="395.0" rx="24" fill="var(--accent-7)" fill-opacity="0.15" stroke="none"/>
      <rect id="ITEM_1_BG" x="-400" y="-180.0" width="800" height="395.0" rx="24" fill="var(--panel)" stroke="var(--accent-1)" filter="url(#svg76a6ad3d-shadow)" stroke-width="3"/>
      <rect x="-388" y="-168.0" width="776" height="371.0" rx="22" fill="url(#svg76a6ad3d-myth-card-sheen)" opacity="0.92"/>
      <circle id="ITEM_1_PAD" cx="-330" cy="-100" r="50" fill="var(--icon-pad-bg)" stroke="var(--background)" stroke-width="2" stroke-opacity="0.65" opacity="0.94" fill-opacity="0.9"/>
      <circle id="ITEM_1_PAD_INNER" cx="-330" cy="-100" r="39.00" fill="var(--accent-7)" fill-opacity="0.22"/>
      <circle cx="-330" cy="-100" r="36" fill="none" stroke="var(--accent-1)" stroke-width="3" stroke-dasharray="6 4"/>
      <g id="ITEM_1_ICON" transform="translate(-360, -130)" data-icon-size="60" stroke-dasharray="6 4">
        <g transform="translate(-14.571428571428571,-14.571428571428573) scale(2.7857142857142856)" vector-effect="non-scaling-stroke" fill="#f1f5f9" fill-opacity="1.0" stroke="none">
          <path fill="#f1f5f9" d="m29.414 6.997l-4-3.997L24 4.414l4 3.997V19h-7a3 3 0 0 0-2.946 2.462C17.416 21.172 16.721 21 16 21s-1.416.172-2.054.462A3 3 0 0 0 11 19H4V8.411l4-3.997L6.586 3l-4 3.997C2.208 7.375 2 7.877 2 8.41V25c0 2.206 1.794 4 4 4h3c2.757 0 5-2.243 5-5v-.214c.544-.49 1.25-.786 2-.786s1.455.296 2 .786V24c0 2.757 2.243 5 5 5h3c2.206 0 4-1.794 4-4V8.411c0-.534-.208-1.036-.586-1.414M12 24c0 1.654-1.346 3-3 3H6c-1.103 0-2-.897-2-2v-4h7a1 1 0 0 1 1 1zm16 1c0 1.103-.897 2-2 2h-3c-1.654 0-3-1.346-3-3v-2a1 1 0 0 1 1-1h7z" vector-effect="non-scaling-stroke" stroke="none"/>
        </g>
      </g>
      <text id="ITEM_1_HEAD" x="0.0" y="-130.0" text-anchor="middle" font-weight="bold" font-size="32" fill="var(--accent-7)" data-bg-id="ITEM_1_BG" fill-opacity="1.0" stroke="none" style="font-size: 30px; font-family: Inter, Segoe UI, Kalam, Roboto, Helvetica, Arial, sans-serif; font-weight: 700; letter-spacing:-0.4px;" data-final-font-size="30">
        <tspan x="0.0" dy="41.85px">Style Preference</tspan>
      </text>
      <rect id="ITEM_1_HEAD_FRAME" x="-310" y="-130" width="620" height="60" fill="none"/>
      <text id="ITEM_1_BODY" x="0.0" y="-50.0" text-anchor="middle" font-size="24" fill="var(--primary-text)" opacity="0.88" data-bg-id="ITEM_1_BG" style="font-size: 26px; font-family: Inter, Segoe UI, Kalam, Roboto, Helvetica, Arial, sans-serif; font-weight: 400;" data-final-font-size="26">
        <tspan x="0.0" dy="67.26px">Students often choose videos or reading tasks</tspan>
      </text>
      <rect id="ITEM_1_BODY_FRAME" x="-310" y="-50" width="620" height="230" fill="none"/>
    </g>
    <g transform="translate(1440.0, 200.0)">
      <rect id="ITEM_2_ACCENT_BG" x="-400" y="-180.0" width="800" height="395.0" rx="24" fill="var(--accent-2)" fill-opacity="0.15" stroke="none"/>
      <rect id="ITEM_2_BG" x="-400" y="-180.0" width="800" height="395.0" rx="24" fill="var(--panel)" stroke="var(--accent-2)" filter="url(#svg76a6ad3d-shadow)" stroke-width="3"/>
      <rect x="-388" y="-168.0" width="776" height="371.0" rx="22" fill="url(#svg76a6ad3d-myth-card-sheen)" opacity="0.92"/>
      <circle id="ITEM_2_PAD" cx="330" cy="-100" r="50" fill="var(--icon-pad-bg)" stroke="var(--background)" stroke-width="2" stroke-opacity="0.65" opacity="0.94" fill-opacity="0.9"/>
      <circle id="ITEM_2_PAD_INNER" cx="330" cy="-100" r="39.00" fill="var(--accent-2)" fill-opacity="0.22"/>
      <circle cx="330" cy="-100" r="36" fill="none" stroke="var(--accent-2)" stroke-width="3" stroke-dasharray="6 4"/>
      <g id="ITEM_2_ICON" transform="translate(300, -130)" data-icon-size="60" stroke-dasharray="6 4">
        <g transform="translate(-16.22222222222222,-16.22222222222222) scale(3.8518518518518516)" vector-effect="non-scaling-stroke" stroke-width="2.43" stroke-linecap="round" stroke-linejoin="round" stroke-opacity="1.0">
          <path d="M8 19h-3a2 2 0 0 1 -2 -2v-10a2 2 0 0 1 2 -2h14a2 2 0 0 1 2 2v11a1 1 0 0 1 -1 1" vector-effect="non-scaling-stroke" fill="none" stroke="#f1f5f9"/>
          <path d="M11 16m0 1a1 1 0 0 1 1 -1h4a1 1 0 0 1 1 1v1a1 1 0 0 1 -1 1h-4a1 1 0 0 1 -1 -1z" vector-effect="non-scaling-stroke" fill="none" stroke="#f1f5f9"/>
        </g>
      </g>
      <text id="ITEM_2_HEAD" x="0.0" y="-130.0" text-anchor="middle" font-weight="bold" font-size="32" fill="var(--accent-2)" data-bg-id="ITEM_2_BG" fill-opacity="1.0" stroke="none" style="font-size: 30px; font-family: Inter, Segoe UI, Kalam, Roboto, Helvetica, Arial, sans-serif; font-weight: 700; letter-spacing:-0.4px;" data-final-font-size="30">
        <tspan x="0.0" dy="41.85px">Style Match</tspan>
      </text>
      <rect id="ITEM_2_HEAD_FRAME" x="-310" y="-130" width="620" height="60" fill="none"/>
      <text id="ITEM_2_BODY" x="0.0" y="-50.0" text-anchor="middle" font-size="24" fill="var(--primary-text)" opacity="0.88" data-bg-id="ITEM_2_BG" style="font-size: 26px; font-family: Inter, Segoe UI, Kalam, Roboto, Helvetica, Arial, sans-serif; font-weight: 400;" data-final-font-size="26">
        <tspan x="0.0" dy="67.26px">Teachers assume matching style improves grades</tspan>
      </text>
      <rect id="ITEM_2_BODY_FRAME" x="-310" y="-50" width="620" height="230" fill="none"/>
    </g>
    <g transform="translate(480.0, 600.0)">
      <rect id="ITEM_3_ACCENT_BG" x="-400" y="-180.0" width="800" height="395.0" rx="24" fill="var(--accent-3)" fill-opacity="0.15"/>
      <rect id="ITEM_3_BG" x="-400" y="-180.0" width="800" height="395.0" rx="24" fill="var(--panel)" stroke="var(--accent-3)" filter="url(#svg76a6ad3d-shadow)" stroke-width="3"/>
      <rect x="-388" y="-168.0" width="776" height="371.0" rx="22" fill="url(#svg76a6ad3d-myth-card-sheen)" opacity="0.92"/>
      <circle id="ITEM_3_PAD" cx="-330" cy="-100" r="50" fill="var(--icon-pad-bg)" stroke="var(--background)" stroke-width="2" stroke-opacity="0.65" opacity="0.94"/>
      <circle id="ITEM_3_PAD_INNER" cx="-330" cy="-100" r="39.00" fill="var(--accent-3)" fill-opacity="0.22"/>
      <circle cx="-330" cy="-100" r="36" fill="none" stroke="var(--accent-3)" stroke-width="3" stroke-dasharray="6 4"/>
      <g id="ITEM_3_ICON" transform="translate(-360, -130)" data-icon-size="60" stroke-dasharray="6 4">
        <g transform="translate(-14.571428571428571,-14.571428571428571) scale(2.7857142857142856)">
          <path d="M2 6C2 3.79086 3.79086 2 6 2H26C28.2091 2 30 3.79086 30 6V26C30 27.4806 29.1956 28.7733 28 29.4649L26.5537 28.9997C25.5578 28.6794 24.4759 28.762 23.5402 29.2299L22 30H19L16 28.5L13 30H10L8.45982 29.2299C7.52406 28.762 6.44223 28.6794 5.44626 28.9997L4 29.4649C2.8044 28.7733 2 27.4806 2 26V6Z" fill="#E1D8EC"/>
          <path d="M10 11V21H2V22H10V30H11V22H21V30H22V22H30V21H22V11H30V10H22V2H21V10H11V2H10V10H2V11H10ZM11 11H21V21H11V11Z" fill="#B4ACBC"/>
          <path d="M6 30H10V10.2135C10 9.54155 9.4527 9 8.77365 9H5.22635C4.5473 9 4 9.54155 4 10.2135V29.4649C4.58835 29.8052 5.27143 30 6 30Z" fill="#00D26A"/>
          <path d="M17.7736 17H14.2264C13.5473 17 13 17.5417 13 18.2137V30H19V18.2137C19 17.5417 18.4527 17 17.7736 17Z" fill="#F70A8D"/>
          <path d="M22 30H26C26.7286 30 27.4117 29.8052 28 29.4649V7.20899C28 6.53955 27.4527 6 26.7736 6H23.2264C22.5473 6 22 6.53955 22 7.20899V30Z" fill="#00A6ED"/>
        </g>
      </g>
      <text id="ITEM_3_HEAD" x="0.0" y="-130.0" text-anchor="middle" font-weight="bold" font-size="32" fill="var(--accent-3)" data-bg-id="ITEM_3_BG" style="font-size: 30px; font-family: Inter, Segoe UI, Kalam, Roboto, Helvetica, Arial, sans-serif; font-weight: 700; letter-spacing:-0.4px;" data-final-font-size="30">
        <tspan x="0.0" dy="41.85px">Learning Gain</tspan>
      </text>
      <rect id="ITEM_3_HEAD_FRAME" x="-310" y="-130" width="620" height="60" fill="none"/>
      <text id="ITEM_3_BODY" x="0.0" y="-50.0" text-anchor="middle" font-size="24" fill="var(--primary-text)" opacity="0.88" data-bg-id="ITEM_3_BG" style="font-size: 26px; font-family: Inter, Segoe UI, Kalam, Roboto, Helvetica, Arial, sans-serif; font-weight: 400;" data-final-font-size="26">
        <tspan x="0.0" dy="67.26px">Research shows no advantage from matching</tspan>
      </text>
      <rect id="ITEM_3_BODY_FRAME" x="-310" y="-50" width="620" height="230" fill="none"/>
    </g>
    <g transform="translate(1440.0, 600.0)">
      <rect id="ITEM_4_ACCENT_BG" x="-400" y="-180.0" width="800" height="395.0" rx="24" fill="var(--accent-4)" fill-opacity="0.15"/>
      <rect id="ITEM_4_BG" x="-400" y="-180.0" width="800" height="395.0" rx="24" fill="var(--panel)" stroke="var(--accent-4)" filter="url(#svg76a6ad3d-shadow)" stroke-width="3"/>
      <rect x="-388" y="-168.0" width="776" height="371.0" rx="22" fill="url(#svg76a6ad3d-myth-card-sheen)" opacity="0.92"/>
      <circle id="ITEM_4_PAD" cx="330" cy="-100" r="50" fill="var(--icon-pad-bg)" stroke="var(--background)" stroke-width="2" stroke-opacity="0.65" opacity="0.94"/>
      <circle id="ITEM_4_PAD_INNER" cx="330" cy="-100" r="39.00" fill="var(--accent-4)" fill-opacity="0.22"/>
      <circle cx="330" cy="-100" r="36" fill="none" stroke="var(--accent-4)" stroke-width="3" stroke-dasharray="6 4"/>
      <g id="ITEM_4_ICON" transform="translate(300, -130)" data-icon-size="60" stroke-dasharray="6 4">
        <g transform="translate(-14.571428571428571,-14.571428571428571) scale(2.7857142857142856)">
          <path d="M15.5 28C21.8513 28 27 22.8513 27 16.5C27 10.1487 21.8513 5 15.5 5C9.14873 5 4 10.1487 4 16.5C4 22.8513 9.14873 28 15.5 28Z" fill="#F4F4F4"/>
          <path d="M25.7663 7.73298C26.1431 7.9044 26.5609 8 27 8C28.65 8 30 6.65 30 5C30 3.35 28.65 2 27 2C25.35 2 24 3.35 24 5C24 5.43909 24.0956 5.85693 24.267 6.23373C21.9083 4.21752 18.8463 3 15.5 3C8.04416 3 2 9.04416 2 16.5C2 23.9558 8.04416 30 15.5 30C22.9558 30 29 23.9558 29 16.5C29 13.1537 27.7825 10.0917 25.7663 7.73298ZM25.39 4.99C25.39 4.1 26.11 3.38 27 3.38C27.88 3.38 28.61 4.1 28.61 4.99C28.61 5.88 27.89 6.6 27 6.6C26.11 6.6 25.39 5.88 25.39 4.99ZM26 16.5C26 22.299 21.299 27 15.5 27C9.70101 27 5 22.299 5 16.5C5 10.701 9.70101 6 15.5 6C21.299 6 26 10.701 26 16.5Z" fill="#F9C23C"/>
          <path d="M25.35 7.99994L23.99 6.63994L25.35 5.27994C25.72 4.90994 26.33 4.90994 26.71 5.27994C27.08 5.64994 27.08 6.25994 26.71 6.63994L25.35 7.99994Z" fill="#FFB02E"/>
          <path d="M13.2234 17.724L11.4099 20.21C11.2299 20.45 11.5299 20.75 11.7799 20.58L14.2735 18.7609L15.2099 24.7499C15.2599 25.0799 15.7399 25.0799 15.7899 24.7499L16.8663 17.8663L23.7499 16.7899C24.0799 16.7399 24.0799 16.2599 23.7499 16.2099L17.7609 15.2735L19.5799 12.78C19.7599 12.54 19.4599 12.24 19.2099 12.41L16.724 14.2234L15.7899 8.24994C15.7399 7.91994 15.2599 7.91994 15.2099 8.24994L14.1336 15.1336L7.24994 16.2099C6.91994 16.2599 6.91994 16.7399 7.24994 16.7899L13.2234 17.724Z" fill="#9B9B9B"/>
          <path d="M17.3382 15L20.9393 21.3271C21.1631 21.7255 20.7252 22.1629 20.3261 21.9394L14 18.3336L17.3382 15Z" fill="#9B9B9B"/>
          <path d="M13.6756 18L10.0605 11.672C9.83756 11.2741 10.2737 10.8373 10.6711 11.0606L17 14.671L13.6756 18Z" fill="#E5336D"/>
          <path d="M15.5 19C16.8807 19 18 17.8807 18 16.5C18 15.1193 16.8807 14 15.5 14C14.1193 14 13 15.1193 13 16.5C13 17.8807 14.1193 19 15.5 19Z" fill="#D3D3D3"/>
        </g>
      </g>
      <text id="ITEM_4_HEAD" x="0.0" y="-130.0" text-anchor="middle" font-weight="bold" font-size="32" fill="var(--accent-4)" data-bg-id="ITEM_4_BG" style="font-size: 30px; font-family: Inter, Segoe UI, Kalam, Roboto, Helvetica, Arial, sans-serif; font-weight: 700; letter-spacing:-0.4px;" data-final-font-size="30">
        <tspan x="0.0" dy="41.85px">Real Difference</tspan>
      </text>
      <rect id="ITEM_4_HEAD_FRAME" x="-310" y="-130" width="620" height="60" fill="none"/>
      <text id="ITEM_4_BODY" x="0.0" y="-50.0" text-anchor="middle" font-size="24" fill="var(--primary-text)" opacity="0.88" data-bg-id="ITEM_4_BG" style="font-size: 26px; font-family: Inter, Segoe UI, Kalam, Roboto, Helvetica, Arial, sans-serif; font-weight: 400;" data-final-font-size="26">
        <tspan x="0.0" dy="67.26px">Content type drives format choice more than style</tspan>
      </text>
      <rect id="ITEM_4_BODY_FRAME" x="-310" y="-50" width="620" height="230" fill="none"/>
    </g>
  </g>
</svg>
