<?xml version='1.0' encoding='utf-8'?>
<svg xmlns="http://www.w3.org/2000/svg" width="100%" height="100%" viewBox="0 0 1920 1080" data-theme="dark">
  <style>
        @font-face {
            font-family: 'Inter';
            src: url('assets/fonts/Inter-Regular.ttf') format('truetype');
            font-weight: 400;
            font-style: normal;
            font-display: swap;
        }
        @font-face {
            font-family: 'Inter';
            src: url('assets/fonts/Inter-Bold.ttf') format('truetype');
            font-weight: 600;
            font-style: normal;
            font-display: swap;
        }
        @font-face {
            font-family: 'Inter';
            src: url('assets/fonts/Inter-Bold.ttf') format('truetype');
            font-weight: 800;
            font-style: normal;
            font-display: swap;
        }
        
:root {
    --background: #0f172a;
    --panel: #1e293b;
    --primary-text: #f1f5f9;
    --muted-text: #94a3b8;
    --inverse-text: #0f172a;
    --border: #334155;
    --shadow-color: #000000;
    --icon-pad-bg: #1e293b;
    --art-glow: #7dd3fc;
    --art-glow-opacity: 0.18;
    --art-sheen: #ffffff;
    --art-sheen-opacity: 0.18;
    --art-shadow: #000000;
    --art-shadow-opacity: 0.28;
    --art-muted-line: #64748b;
    --art-panel-tint: #1e293b;
    --font-family: 'Inter', 'Segoe UI', 'Kalam', Roboto, Helvetica, Arial, sans-serif;
    --radius-xl: 16px;
    --font-family-headline: 'Inter', 'Segoe UI', 'Kalam', Roboto, Helvetica, Arial, sans-serif;
    --font-family-body: 'Inter', 'Segoe UI', 'Kalam', Roboto, Helvetica, Arial, sans-serif;
    --font-heading: 'Inter', 'Segoe UI', 'Kalam', Roboto, Helvetica, Arial, sans-serif;
    --font-body: 'Inter', 'Segoe UI', 'Kalam', Roboto, Helvetica, Arial, sans-serif;
    --font-size-h1: 56px;
    --font-size-h2: 40px;
    --font-size-h3: 28px;
    --font-size-body: 24px;
    --font-size-caption: 18px;
    --secondary-text: var(--muted-text);
    --panel-border: var(--border);
    --font-weight-normal: 400;
    --font-weight-medium: 500;
    --font-weight-semibold: 600;
    --font-weight-bold: 700;
    --spacing-gutter-pct: 0.07;
    --spacing-top-pct: 0.15;
    --spacing-bottom-pct: 0.07;
    --spacing-title-y-pct: 0.055;
    --accent-1: #a5b4fc;
    --accent-2: #34d399;
    --accent-3: #f472b6;
    --accent-4: #fbbf24;
    --accent-5: #38bdf8;
    --accent-6: #c084fc;
    --accent-7: #f87171;
    --accent-8: #2dd4bf;
    --accent-9: #fb923c;
    --accent-10: #e879f9;
}
:root[data-theme="dark"] {
    --background: #0f172a;
    --panel: #1e293b;
    --primary-text: #f1f5f9;
    --muted-text: #94a3b8;
    --inverse-text: #0f172a;
    --border: #334155;
    --shadow-color: #000000;
    --icon-pad-bg: #1e293b;
    --art-glow: #7dd3fc;
    --art-glow-opacity: 0.18;
    --art-sheen: #ffffff;
    --art-sheen-opacity: 0.18;
    --art-shadow: #000000;
    --art-shadow-opacity: 0.28;
    --art-muted-line: #64748b;
    --art-panel-tint: #1e293b;
    --accent-1: #a5b4fc;
    --accent-2: #34d399;
    --accent-3: #f472b6;
    --accent-4: #fbbf24;
    --accent-5: #38bdf8;
    --accent-6: #c084fc;
    --accent-7: #f87171;
    --accent-8: #2dd4bf;
    --accent-9: #fb923c;
    --accent-10: #e879f9;
}
:root[data-theme="light"] {
    --background: #f8fafc;
    --panel: #ffffff;
    --primary-text: #0f172a;
    --muted-text: #64748b;
    --inverse-text: #ffffff;
    --border: #e2e8f0;
    --shadow-color: #000000;
    --icon-pad-bg: #1e293b;
    --art-glow: #0891b2;
    --art-glow-opacity: 0.10;
    --art-sheen: #ffffff;
    --art-sheen-opacity: 0.34;
    --art-shadow: #0f172a;
    --art-shadow-opacity: 0.14;
    --art-muted-line: #94a3b8;
    --art-panel-tint: #f1f5f9;
    --accent-1: #4f46e5;
    --accent-2: #059669;
    --accent-3: #db2777;
    --accent-4: #d97706;
    --accent-5: #0284c7;
    --accent-6: #7c3aed;
    --accent-7: #dc2626;
    --accent-8: #0d9488;
    --accent-9: #ea580c;
    --accent-10: #c026d3;
}</style>
  <rect x="0" y="0" width="1.92E+3" height="1.08E+3" fill="#252a34" stroke="none" id="programmatic_background"/>
  <line id="HEADER_DECOR" x1="960.0" x2="1080.0" y1="90.0" y2="90.0" stroke="var(--accent-1)" stroke-width="6" stroke-linecap="round"/>
  <defs>
    <filter id="svg1c0dfc52-glow" x="-20%" y="-20%" width="140%" height="140%">
      <feGaussianBlur stdDeviation="8" result="blur"/>
      <feComposite in="SourceGraphic" in2="blur" operator="over"/>
    </filter>
    <filter id="svg1c0dfc52-drop-shadow" x="-5%" y="-5%" width="110%" height="110%">
      <feDropShadow dx="0" dy="6" stdDeviation="6" flood-color="#000000" flood-opacity="0.3"/>
    </filter>
    <linearGradient id="svg1c0dfc52-bg-grad" x1="0%" y1="0%" x2="100%" y2="100%">
      <stop offset="0%" stop-color="var(--background)"/>
      <stop offset="100%" stop-color="var(--panel)"/>
    </linearGradient>
    <radialGradient id="svg1c0dfc52-core-glow" cx="50%" cy="50%" r="50%">
      <stop offset="0%" stop-color="var(--accent-1)" stop-opacity="0.2"/>
      <stop offset="60%" stop-color="var(--accent-1)" stop-opacity="0.1"/>
      <stop offset="100%" stop-color="var(--accent-1)" stop-opacity="0"/>
    </radialGradient>
    <pattern id="svg1c0dfc52-dot-grid" x="0" y="0" width="40" height="40" patternUnits="userSpaceOnUse">
      <circle cx="2" cy="2" r="1.5" fill="var(--muted-text)" opacity="0.1"/>
    </pattern>
    <radialGradient id="svg1c0dfc52-universal-edge-vignette" cx="50%" cy="50%" r="72%">
      <stop offset="0%" stop-color="var(--background)" stop-opacity="0"/>
      <stop offset="72%" stop-color="var(--background)" stop-opacity="0.12"/>
      <stop offset="100%" stop-color="var(--primary-text)" stop-opacity="0.08"/>
    </radialGradient>
    <linearGradient id="svg1c0dfc52-universal-surface-sheen" x1="0%" y1="0%" x2="100%" y2="100%">
      <stop offset="0%" stop-color="var(--art-sheen)" stop-opacity="var(--art-sheen-opacity)"/>
      <stop offset="46%" stop-color="var(--art-sheen)" stop-opacity="0.035"/>
      <stop offset="100%" stop-color="var(--art-panel-tint)" stop-opacity="0.14"/>
    </linearGradient>
    <radialGradient id="svg1c0dfc52-universal-icon-aura" cx="50%" cy="42%" r="64%">
      <stop offset="0%" stop-color="var(--art-glow)" stop-opacity="var(--art-glow-opacity)"/>
      <stop offset="100%" stop-color="var(--background)" stop-opacity="0"/>
    </radialGradient>
    <radialGradient id="svg1c0dfc52-orbital-rings-art-glow" cx="50%" cy="52%" r="68%">
      <stop offset="0%" stop-color="var(--inverse-text)" stop-opacity="0.14"/>
      <stop offset="100%" stop-color="var(--background)" stop-opacity="0"/>
    </radialGradient>
    <linearGradient id="svg1c0dfc52-orbital-rings-art-sheen" x1="16%" y1="0%" x2="86%" y2="100%">
      <stop offset="0%" stop-color="var(--inverse-text)" stop-opacity="0.22"/>
      <stop offset="52%" stop-color="var(--inverse-text)" stop-opacity="0.035"/>
      <stop offset="100%" stop-color="var(--background)" stop-opacity="0.14"/>
    </linearGradient>
    <radialGradient id="svg1c0dfc52-orbital-depth-glow" cx="50%" cy="50%" r="58%">
      <stop offset="0%" stop-color="var(--art-glow)" stop-opacity="var(--art-glow-opacity)"/>
      <stop offset="58%" stop-color="var(--art-glow)" stop-opacity="0.055"/>
      <stop offset="100%" stop-color="var(--background)" stop-opacity="0"/>
    </radialGradient>
    <linearGradient id="svg1c0dfc52-orbital-ring-sweep" x1="0%" y1="0%" x2="100%" y2="100%">
      <stop offset="0%" stop-color="var(--background)" stop-opacity="0"/>
      <stop offset="46%" stop-color="var(--art-sheen)" stop-opacity="0.22"/>
      <stop offset="100%" stop-color="var(--background)" stop-opacity="0"/>
    </linearGradient>
    <filter id="svg1c0dfc52-text-glow" x="-20%" y="-20%" width="140%" height="140%">
      <feDropShadow dx="0" dy="0" stdDeviation="2" flood-color="#000000" flood-opacity="0.4"/>
    </filter>
    <filter id="svg1c0dfc52-shadow" x="-30%" y="-30%" width="160%" height="160%">
      <feDropShadow dx="0" dy="2" stdDeviation="3" flood-color="#000000" flood-opacity="0.08"/>
      <feDropShadow dx="0" dy="6" stdDeviation="10" flood-color="#000000" flood-opacity="0.12"/>
    </filter>
    <marker id="svg1c0dfc52-arrowhead" markerWidth="10" markerHeight="7" refX="9" refY="3.5" orient="auto" markerUnits="strokeWidth">
      <polygon points="0 0, 10 3.5, 0 7" fill="var(--muted-text)" opacity="0.6"/>
    </marker>
  </defs>
  <rect width="100%" height="100%" fill="var(--background)" id="CANVAS_BG"/>
  <ellipse id="ORBITAL-RINGS_ART_GLOW" cx="960" cy="600" rx="650" ry="340" fill="url(#svg1c0dfc52-orbital-rings-art-glow)" opacity="0.84"/>
  <rect id="UNIVERSAL_EDGE_VIGNETTE" width="100%" height="100%" fill="url(#svg1c0dfc52-universal-edge-vignette)" opacity="0.62"/>
  <rect width="1920" height="1080" fill="url(#svg1c0dfc52-bg-grad)"/>
  <rect width="1920" height="1080" fill="url(#svg1c0dfc52-dot-grid)"/>
  <rect id="TITLE_FRAME" x="134" y="25" width="1652" height="70" fill="none" pointer-events="none"/>
  <text id="TITLE" x="960.0" y="59" font-size="48" font-weight="700" fill="#f1f5f9" text-anchor="middle" style="font-size: 60px; font-family: Inter, Segoe UI, Kalam, Roboto, Helvetica, Arial, sans-serif; font-weight: 700; letter-spacing:-1.2px;" data-final-font-size="60">
    <tspan x="960.0" dy="68.00px">The Credibility Cycle</tspan>
  </text>
  <g id="DIAGRAM_MAIN">
    <!-- Center Core Glow -->
    <circle cx="960.0" cy="540.0" r="280" fill="url(#svg1c0dfc52-core-glow)" pointer-events="none"/>
    <circle cx="960.0" cy="540.0" r="240.0" fill="none" stroke="var(--muted-text)" stroke-width="2" stroke-dasharray="8 8" opacity="0.4"/>
    <circle id="ORBITAL_RINGS_ART_RING_SHEEN_240.0" cx="960.0" cy="540.0" r="240.0" fill="none" stroke="url(#svg1c0dfc52-orbital-ring-sweep)" stroke-width="3" stroke-dasharray="28 30" opacity="0.46"/>
    <circle cx="960.0" cy="540.0" r="295.0" fill="none" stroke="var(--muted-text)" stroke-width="2" stroke-dasharray="8 8" opacity="0.4"/>
    <circle id="ORBITAL_RINGS_ART_RING_SHEEN_295.0" cx="960.0" cy="540.0" r="295.0" fill="none" stroke="url(#svg1c0dfc52-orbital-ring-sweep)" stroke-width="3" stroke-dasharray="28 30" opacity="0.46"/>
    <circle cx="960.0" cy="540.0" r="350.0" fill="none" stroke="var(--muted-text)" stroke-width="2" stroke-dasharray="8 8" opacity="0.4"/>
    <circle id="ORBITAL_RINGS_ART_RING_SHEEN_350.0" cx="960.0" cy="540.0" r="350.0" fill="none" stroke="url(#svg1c0dfc52-orbital-ring-sweep)" stroke-width="3" stroke-dasharray="28 30" opacity="0.46"/>
    <circle cx="960.0" cy="540.0" r="405.0" fill="none" stroke="var(--muted-text)" stroke-width="2" stroke-dasharray="8 8" opacity="0.4"/>
    <circle id="ORBITAL_RINGS_ART_RING_SHEEN_405.0" cx="960.0" cy="540.0" r="405.0" fill="none" stroke="url(#svg1c0dfc52-orbital-ring-sweep)" stroke-width="3" stroke-dasharray="28 30" opacity="0.46"/>
    <circle cx="960.0" cy="540.0" r="460.0" fill="none" stroke="var(--muted-text)" stroke-width="2" stroke-dasharray="8 8" opacity="0.4"/>
    <circle id="ORBITAL_RINGS_ART_RING_SHEEN_460.0" cx="960.0" cy="540.0" r="460.0" fill="none" stroke="url(#svg1c0dfc52-orbital-ring-sweep)" stroke-width="3" stroke-dasharray="28 30" opacity="0.46"/>
    <ellipse id="ORBITAL_RINGS_ART_DEPTH_GLOW" cx="960.0" cy="540.0" rx="410" ry="340" fill="url(#svg1c0dfc52-orbital-depth-glow)" opacity="0.92"/>
    <!-- Central Core Graphic -->
    <circle cx="960.0" cy="540.0" r="180" fill="var(--panel)" stroke="var(--primary-text)" stroke-width="4" filter="url(#svg1c0dfc52-drop-shadow)"/>
    <circle cx="960.0" cy="540.0" r="165" fill="none" stroke="var(--muted-text)" stroke-width="2" stroke-dasharray="10 5" opacity="0.3"/>
    <circle cx="960.0" cy="540.0" r="140" fill="none" stroke="var(--accent-1)" stroke-width="1" stroke-dasharray="4 4" opacity="0.5"/>
    <circle id="ORBITAL_RINGS_ART_CORE_AURA" cx="960.0" cy="540.0" r="74" fill="url(#svg1c0dfc52-universal-icon-aura)" opacity="0.72"/>
    <circle cx="960.0" cy="540.0" r="30" fill="var(--primary-text)" opacity="0.1"/>
    <circle id="ORBITAL_RINGS_ART_CORE_GLINT" cx="938" cy="518" r="11" fill="var(--art-sheen)" opacity="0.34"/>
    <!-- Standard Top Global Title -->
    <circle id="ORBITAL_RINGS_ART_NODE_AURA_1" cx="1200.0" cy="540.0" r="58" fill="var(--accent-9)" opacity="0.72" fill-opacity="0.15" stroke="var(--accent-9)" stroke-opacity="1.0"/>
    <circle id="ITEM_1_BORDER" cx="1200.0" cy="540.0" r="42" fill="var(--icon-pad-bg)" stroke="var(--accent-9)" filter="url(#svg1c0dfc52-drop-shadow)" stroke-opacity="1.0"/>
    <circle id="ITEM_1_STROKE" cx="1200.0" cy="540.0" r="34" fill="none" stroke="var(--accent-1)" stroke-width="3" stroke-dasharray="6 4" opacity="0.95"/>
    <!-- Node Icon Placeholder -->
    <circle id="ITEM_1_PAD" cx="1204.00" cy="544.00" r="44.80" fill="var(--icon-pad-bg)" stroke="var(--primary-text)" stroke-width="2" opacity="0.9"/>
    <circle id="ITEM_1_PAD_INNER" cx="1204.00" cy="544.00" r="34.94" fill="var(--accent-9)" fill-opacity="0.22"/>
    <g id="ITEM_1_ICON" transform="translate(1176.0, 516.0)" data-icon-size="56" stroke-dasharray="6 4">
      <g transform="translate(-11.891823008849553,-11.273345132743362) scale(2.4739115044247786)">
        <path d="M29.2001 2.94972C28.253 2.00263 26.4999 1.9525 25.3817 2.52547C24.4693 2.83877 23.5081 3.19209 22.5278 3.58828L22.5383 3.59883C19.9627 4.69286 16.1108 6.63769 13.0279 9.49984C10.8637 11.5091 9.62366 13.0559 8.79313 14.4647L3.49489 16.4149C2.80991 16.6671 2.6171 17.5444 3.13322 18.0605C6.84572 21.773 10.5582 25.4855 14.2707 29.198C14.7868 29.7141 15.6641 29.5213 15.9163 28.8363L18.1197 22.8504C19.7284 21.8921 21.3425 20.6853 23.0279 18.9999C25.4183 16.6095 27.3936 12.4408 28.5413 9.64309L28.5496 9.65145C28.9506 8.66094 29.3079 7.68963 29.6243 6.76812C30.1973 5.64991 30.3642 4.11384 29.2001 2.94972Z" fill="#CA0B4A"/>
        <path d="M23.2987 4.3645C20.7818 5.4041 16.8206 7.34324 13.7083 10.2327C11.6937 12.103 10.5374 13.5272 9.76899 14.7821C8.99995 16.0381 8.59391 17.1628 8.10621 18.5226L8.10371 18.5296C7.93354 19.0041 7.75311 19.5072 7.54517 20.0441L12.1006 24.5996C15.7031 23.1209 18.8412 21.7724 22.3208 18.2928C24.6722 15.9414 26.6597 11.6505 27.7751 8.87168L23.2987 4.3645Z" fill="#F4F4F4"/>
        <path d="M24.5278 11.25C24.5278 13.0449 23.0727 14.5 21.2778 14.5C19.4828 14.5 18.0278 13.0449 18.0278 11.25C18.0278 9.45507 19.4828 8 21.2778 8C23.0727 8 24.5278 9.45507 24.5278 11.25Z" fill="#9B9B9B"/>
        <path d="M23.5278 11.25C23.5278 12.4926 22.5204 13.5 21.2778 13.5C20.0351 13.5 19.0278 12.4926 19.0278 11.25C19.0278 10.0074 20.0351 9 21.2778 9C22.5204 9 23.5278 10.0074 23.5278 11.25Z" fill="#83CBFF"/>
        <path d="M2.45122 29.6108C1.74411 28.9037 2.02779 24 4.52777 23C4.52777 23 7.02777 22 8.63878 23.6005C10.2498 25.2011 9.52776 26.9999 9.52776 26.9999C8.82068 29.1212 5.81033 29.9645 5.45679 29.6109C5.26153 29.4157 5.61314 29.0602 5.45679 28.9038C5.30045 28.7475 5.05904 28.9259 4.39613 29.2574C3.92473 29.4931 2.73406 29.8937 2.45122 29.6108Z" fill="#FF8257"/>
        <path d="M6.08839 21.0607C6.67417 20.4749 7.62392 20.4749 8.20971 21.0607L11.7452 24.5962C12.331 25.182 12.331 26.1317 11.7452 26.7175C11.1595 27.3033 10.2097 27.3033 9.62392 26.7175L6.08839 23.182C5.5026 22.5962 5.5026 21.6465 6.08839 21.0607Z" fill="#533566"/>
        <path d="M15.5351 18.722C15.977 17.5214 14.8098 16.3542 13.6092 16.7961L6.49489 19.4149C5.80991 19.6671 5.6171 20.5444 6.13322 21.0605L11.2707 26.198C11.7868 26.7141 12.6641 26.5213 12.9163 25.8363L15.5351 18.722Z" fill="#F92F60"/>
      </g>
    </g>
    <line x1="1248.0" y1="540.0" x2="1260.0" y2="540.0" stroke="var(--accent-1)" stroke-width="2" stroke-dasharray="2 2" opacity="0.5"/>
    <circle cx="1260.0" cy="540.0" r="3" fill="var(--accent-1)"/>
    <!-- Node 1 Frames -->
    <rect id="ITEM_1_HEAD_FRAME" x="1270.0" y="500.0" width="260" height="40" fill="none" pointer-events="none"/>
    <rect id="ITEM_1_BODY_FRAME" x="1270" y="540.0" width="380" height="120" fill="none" pointer-events="none"/>
    <rect id="ITEM_1_TEXT_BG" x="1252" y="486" width="416" height="192" rx="22" fill="var(--panel)" fill-opacity="0.94" stroke="var(--primary-text)" stroke-width="2"/>
    <text id="ITEM_1_HEAD" x="1270.0" y="500.0" font-family="var(--font-heading)" font-weight="bold" font-size="28" fill="var(--accent-9)" text-anchor="start" data-bg-id="ITEM_1_TEXT_BG" fill-opacity="1.0" stroke="none" style="font-size: 30px; font-family: Inter, Segoe UI, Kalam, Roboto, Helvetica, Arial, sans-serif; font-weight: 700; letter-spacing:-0.4px;" data-final-font-size="30">
      <tspan x="1270.0" dy="28.25px">Visibility Gain</tspan>
    </text>
    <text id="ITEM_1_BODY" x="1270.0" y="540.0" font-family="var(--font-body)" font-size="20" fill="var(--primary-text)" opacity="0.8" text-anchor="start" data-bg-id="ITEM_1_TEXT_BG" style="font-size: 26px; font-family: Inter, Segoe UI, Kalam, Roboto, Helvetica, Arial, sans-serif; font-weight: 400;" data-final-font-size="26">
      <tspan x="1270.0" dy="32.84px">Creators gain visibility</tspan>
      <tspan x="1270.0" dy="29.90px">through platform algorithms</tspan>
    </text>
    <circle id="ORBITAL_RINGS_ART_NODE_AURA_2" cx="665.0" cy="540.0" r="58" fill="var(--accent-10)" opacity="0.72" fill-opacity="0.15" stroke="var(--accent-10)" stroke-opacity="1.0"/>
    <circle id="ITEM_2_BORDER" cx="665.0" cy="540.0" r="42" fill="var(--icon-pad-bg)" stroke="var(--accent-10)" filter="url(#svg1c0dfc52-drop-shadow)" stroke-opacity="1.0"/>
    <circle id="ITEM_2_STROKE" cx="665.0" cy="540.0" r="34" fill="none" stroke="var(--accent-2)" stroke-width="3" stroke-dasharray="6 4" opacity="0.95"/>
    <!-- Node Icon Placeholder -->
    <circle id="ITEM_2_PAD" cx="669.00" cy="544.00" r="44.80" fill="var(--icon-pad-bg)" stroke="var(--primary-text)" stroke-width="2" opacity="0.9"/>
    <circle id="ITEM_2_PAD_INNER" cx="669.00" cy="544.00" r="34.94" fill="var(--accent-10)" fill-opacity="0.22"/>
    <g id="ITEM_2_ICON" transform="translate(641.0, 516.0)" data-icon-size="56" stroke-dasharray="6 4">
      <g transform="translate(-13.415111111111106,-13.415111111111106) scale(3.451259259259259)" vector-effect="non-scaling-stroke" fill="#f1f5f9" fill-opacity="1.0" stroke="none">
        <path fill="#f1f5f9" d="M3.69 9.12a.88.88 0 0 0-.65-.28c-.41 0-.72.19-.92.58s-.15.76.17 1.11q1.77 1.59 2.25 2.25c.41.56.61 1.38.61 2.44c0 1.31.5 2.28 1.5 2.95c.56.44 1.17.77 1.85.99v-3.89c0-.94-.33-1.72-.96-2.35m8.92.05c-.62.62-.96 1.39-.96 2.3v3.93c.96-.34 1.76-.87 2.42-1.57c.65-.7.98-1.47.98-2.41c0-1.13.19-1.94.57-2.44c.09-.16.26-.36.53-.61c.23-.25.47-.49.71-.71c.23-.21.46-.43.68-.65l.33-.28a.9.9 0 0 0 .28-.66c0-.28-.09-.53-.28-.73s-.42-.3-.72-.3s-.5.09-.69.28M12 20c.69 0 1.36-.09 2-.28v-3.57c0-.59-.18-1.05-.59-1.49Q12.795 14 12 14c-.53 0-1 .2-1.38.61c-.4.39-.62.85-.62 1.45v3.66c.64.19 1.31.28 2 .28M9 8.5c0 .83-.67 1.5-1.5 1.5S6 9.33 6 8.5S6.67 7 7.5 7S9 7.67 9 8.5m9 0c0 .83-.67 1.5-1.5 1.5S15 9.33 15 8.5S15.67 7 16.5 7s1.5.67 1.5 1.5m-4.5-3c0 .83-.67 1.5-1.5 1.5s-1.5-.67-1.5-1.5S11.17 4 12 4s1.5.67 1.5 1.5m0 5.5c0 .83-.67 1.5-1.5 1.5s-1.5-.67-1.5-1.5s.67-1.5 1.5-1.5s1.5.67 1.5 1.5" vector-effect="non-scaling-stroke" stroke="none"/>
      </g>
    </g>
    <line x1="617.0" y1="540.0" x2="605.0" y2="540.0" stroke="var(--accent-2)" stroke-width="2" stroke-dasharray="2 2" opacity="0.5"/>
    <circle cx="605.0" cy="540.0" r="3" fill="var(--accent-2)"/>
    <!-- Node 2 Frames -->
    <rect id="ITEM_2_HEAD_FRAME" x="335.0" y="500.0" width="260" height="40" fill="none" pointer-events="none"/>
    <rect id="ITEM_2_BODY_FRAME" x="215" y="540.0" width="380" height="120" fill="none" pointer-events="none"/>
    <rect id="ITEM_2_TEXT_BG" x="197" y="486" width="416" height="192" rx="22" fill="var(--panel)" fill-opacity="0.94" stroke="var(--primary-text)" stroke-width="2"/>
    <text id="ITEM_2_HEAD" x="595.0" y="500.0" font-family="var(--font-heading)" font-weight="bold" font-size="28" fill="var(--accent-10)" text-anchor="end" data-bg-id="ITEM_2_TEXT_BG" fill-opacity="1.0" stroke="none" style="font-size: 30px; font-family: Inter, Segoe UI, Kalam, Roboto, Helvetica, Arial, sans-serif; font-weight: 700; letter-spacing:-0.4px;" data-final-font-size="30">
      <tspan x="595.0" dy="28.25px">Follower Surge</tspan>
    </text>
    <text id="ITEM_2_BODY" x="595.0" y="540.0" font-family="var(--font-body)" font-size="20" fill="var(--primary-text)" opacity="0.8" text-anchor="end" data-bg-id="ITEM_2_TEXT_BG" style="font-size: 26px; font-family: Inter, Segoe UI, Kalam, Roboto, Helvetica, Arial, sans-serif; font-weight: 400;" data-final-font-size="26">
      <tspan x="595.0" dy="32.84px">High visibility attracts new</tspan>
      <tspan x="595.0" dy="29.90px">followers rapidly</tspan>
    </text>
    <circle id="ORBITAL_RINGS_ART_NODE_AURA_3" cx="1184.975663390289" cy="271.8844449083577" r="58" fill="var(--accent-1)" opacity="0.72" fill-opacity="0.15" stroke="var(--accent-1)" stroke-opacity="1.0"/>
    <circle id="ITEM_3_BORDER" cx="1184.975663390289" cy="271.8844449083577" r="42" fill="var(--icon-pad-bg)" stroke="var(--accent-1)" filter="url(#svg1c0dfc52-drop-shadow)" stroke-opacity="1.0"/>
    <circle id="ITEM_3_STROKE" cx="1184.975663390289" cy="271.8844449083577" r="34" fill="none" stroke="var(--accent-3)" stroke-width="3" stroke-dasharray="6 4" opacity="0.95"/>
    <!-- Node Icon Placeholder -->
    <circle id="ITEM_3_PAD" cx="1188.98" cy="275.88" r="44.80" fill="var(--icon-pad-bg)" stroke="var(--primary-text)" stroke-width="2" opacity="0.9"/>
    <circle id="ITEM_3_PAD_INNER" cx="1188.98" cy="275.88" r="34.94" fill="var(--accent-1)" fill-opacity="0.22"/>
    <g id="ITEM_3_ICON" transform="translate(1160.975663390289, 247.8844449083577)" data-icon-size="56" stroke-dasharray="6 4">
      <g transform="translate(-9.905355932203385,-9.905355932203385) scale(3.1587796610169487)" vector-effect="non-scaling-stroke" stroke-width="2.38" stroke-linecap="round" stroke-linejoin="round" stroke-opacity="1.0">
        <path d="M3.85 8.62a4 4 0 0 1 4.78-4.77 4 4 0 0 1 6.74 0 4 4 0 0 1 4.78 4.78 4 4 0 0 1 0 6.74 4 4 0 0 1-4.77 4.78 4 4 0 0 1-6.75 0 4 4 0 0 1-4.78-4.77 4 4 0 0 1 0-6.76Z" vector-effect="non-scaling-stroke" fill="none" stroke="#f1f5f9"/>
      </g>
    </g>
    <line x1="1215.8294686552429" y1="235.11431163864674" x2="1244.975663390289" y2="271.8844449083577" stroke="var(--accent-3)" stroke-width="2" stroke-dasharray="2 2" opacity="0.5"/>
    <circle cx="1244.975663390289" cy="271.8844449083577" r="3" fill="var(--accent-3)"/>
    <!-- Node 3 Frames -->
    <rect id="ITEM_3_HEAD_FRAME" x="1254.975663390289" y="231.8844449083577" width="260" height="40" fill="none" pointer-events="none"/>
    <rect id="ITEM_3_BODY_FRAME" x="1255" y="271.8844449083577" width="380" height="120" fill="none" pointer-events="none"/>
    <rect id="ITEM_3_TEXT_BG" x="1236.975663390289" y="217.8844449083577" width="416.024336609711" height="192" rx="22" fill="var(--panel)" fill-opacity="0.94" stroke="var(--primary-text)" stroke-width="2"/>
    <text id="ITEM_3_HEAD" x="1254.975663390289" y="231.8844449083577" font-family="var(--font-heading)" font-weight="bold" font-size="28" fill="var(--accent-1)" text-anchor="start" data-bg-id="ITEM_3_TEXT_BG" fill-opacity="1.0" stroke="none" style="font-size: 29px; font-family: Inter, Segoe UI, Kalam, Roboto, Helvetica, Arial, sans-serif; font-weight: 700; letter-spacing:-0.4px;" data-final-font-size="29">
      <tspan x="1254.975663390289" dy="27.98px">Credibility Signal</tspan>
    </text>
    <text id="ITEM_3_BODY" x="1255.0" y="271.8844449083577" font-family="var(--font-body)" font-size="20" fill="var(--primary-text)" opacity="0.8" text-anchor="start" data-bg-id="ITEM_3_TEXT_BG" style="font-size: 26px; font-family: Inter, Segoe UI, Kalam, Roboto, Helvetica, Arial, sans-serif; font-weight: 400;" data-final-font-size="26">
      <tspan x="1255.0" dy="32.84px">Follower counts signal</tspan>
      <tspan x="1255.0" dy="29.90px">trustworthiness instantly</tspan>
    </text>
    <circle id="ORBITAL_RINGS_ART_NODE_AURA_4" cx="699.6710180769516" cy="850.247999463186" r="58" fill="var(--accent-2)" opacity="0.72" fill-opacity="0.15" stroke="var(--accent-2)" stroke-opacity="1.0"/>
    <circle id="ITEM_4_BORDER" cx="699.6710180769516" cy="850.247999463186" r="42" fill="var(--icon-pad-bg)" stroke="var(--accent-2)" filter="url(#svg1c0dfc52-drop-shadow)" stroke-opacity="1.0"/>
    <circle id="ITEM_4_STROKE" cx="699.6710180769516" cy="850.247999463186" r="34" fill="none" stroke="var(--accent-4)" stroke-width="3" stroke-dasharray="6 4" opacity="0.95"/>
    <!-- Node Icon Placeholder -->
    <circle id="ITEM_4_PAD" cx="703.67" cy="854.25" r="44.80" fill="var(--icon-pad-bg)" stroke="var(--primary-text)" stroke-width="2" opacity="0.9"/>
    <circle id="ITEM_4_PAD_INNER" cx="703.67" cy="854.25" r="34.94" fill="var(--accent-2)" fill-opacity="0.22"/>
    <g id="ITEM_4_ICON" transform="translate(675.6710180769516, 826.247999463186)" data-icon-size="56" stroke-dasharray="6 4">
      <g transform="translate(-11.582584070796461,-11.891823008849553) scale(2.4739115044247786)">
        <path d="M23.5103 2.01H8.60027V2H4.45026V5H6.95026V27.07C6.95026 28.69 8.27026 30.01 9.89026 30.01H25.5603C26.3303 30.01 26.9503 29.39 26.9503 28.62V5.45C26.9503 3.55 25.4103 2.01 23.5103 2.01Z" fill="#FFDEA7"/>
        <path d="M10.8603 29.99C10.8603 29.99 13.1003 29.66 13.5903 27.49C13.6603 27.19 14.0003 26.97 14.4003 26.97H29.1303C29.6503 26.97 30.0403 27.33 29.9503 27.71C29.7203 28.6 29.3503 30 25.5803 30C20.0103 30 10.8603 29.99 10.8603 29.99Z" fill="#E19747"/>
        <path d="M6.95026 5C6.95026 3.34 5.83027 2 4.45026 2C3.26026 2 2.27028 3 2.01028 4.33C1.95028 4.67 2.16026 5 2.45026 5H6.95026Z" fill="#D3883E"/>
        <path d="M10.4203 11.87C10.1441 11.87 9.92029 12.0939 9.92029 12.37C9.92029 12.6461 10.1441 12.87 10.4203 12.87H23.5003C23.7764 12.87 24.0003 12.6461 24.0003 12.37C24.0003 12.0939 23.7764 11.87 23.5003 11.87H10.4203ZM9.98029 15.33C9.98029 15.0539 10.2041 14.83 10.4803 14.83H23.5003C23.7764 14.83 24.0003 15.0539 24.0003 15.33C24.0003 15.6062 23.7764 15.83 23.5003 15.83H10.4803C10.2041 15.83 9.98029 15.6062 9.98029 15.33ZM10.4803 17.85C10.2041 17.85 9.98029 18.0738 9.98029 18.35C9.98029 18.6261 10.2041 18.85 10.4803 18.85H23.5003C23.7764 18.85 24.0003 18.6261 24.0003 18.35C24.0003 18.0738 23.7764 17.85 23.5003 17.85H10.4803ZM10.5103 20.83C10.2341 20.83 10.0103 21.0539 10.0103 21.33C10.0103 21.6062 10.2341 21.83 10.5103 21.83H18.4703C18.7464 21.83 18.9703 21.6062 18.9703 21.33C18.9703 21.0539 18.7464 20.83 18.4703 20.83H10.5103Z" fill="#D3883E"/>
      </g>
    </g>
    <line x1="668.8172128119977" y1="887.018132732897" x2="639.6710180769516" y2="850.247999463186" stroke="var(--accent-4)" stroke-width="2" stroke-dasharray="2 2" opacity="0.5"/>
    <circle cx="639.6710180769516" cy="850.247999463186" r="3" fill="var(--accent-4)"/>
    <!-- Node 4 Frames -->
    <rect id="ITEM_4_HEAD_FRAME" x="369.67101807695155" y="810.247999463186" width="260" height="40" fill="none" pointer-events="none"/>
    <rect id="ITEM_4_BODY_FRAME" x="249.7" y="850.247999463186" width="380" height="120" fill="none" pointer-events="none"/>
    <rect id="ITEM_4_TEXT_BG" x="231.7" y="796.247999463186" width="416" height="192" rx="22" fill="var(--panel)" fill-opacity="0.94" stroke="var(--primary-text)" stroke-width="2"/>
    <text id="ITEM_4_HEAD" x="629.6710180769516" y="810.247999463186" font-family="var(--font-heading)" font-weight="bold" font-size="28" fill="var(--accent-2)" text-anchor="end" data-bg-id="ITEM_4_TEXT_BG" fill-opacity="1.0" stroke="none" style="font-size: 30px; font-family: Inter, Segoe UI, Kalam, Roboto, Helvetica, Arial, sans-serif; font-weight: 700; letter-spacing:-0.4px;" data-final-font-size="30">
      <tspan x="629.6710180769516" dy="28.25px">Engagement Reward</tspan>
    </text>
    <text id="ITEM_4_BODY" x="629.7" y="850.247999463186" font-family="var(--font-body)" font-size="20" fill="var(--primary-text)" opacity="0.8" text-anchor="end" data-bg-id="ITEM_4_TEXT_BG" style="font-size: 26px; font-family: Inter, Segoe UI, Kalam, Roboto, Helvetica, Arial, sans-serif; font-weight: 400;" data-final-font-size="26">
      <tspan x="629.7" dy="32.84px">Platforms reward engagement</tspan>
      <tspan x="629.7" dy="29.90px">with more visibility</tspan>
    </text>
    <circle id="ORBITAL_RINGS_ART_NODE_AURA_5" cx="1255.6823004558082" cy="892.3804438347299" r="58" fill="var(--accent-3)" opacity="0.72" fill-opacity="0.15" stroke="var(--accent-3)" stroke-opacity="1.0"/>
    <circle id="ITEM_5_BORDER" cx="1255.6823004558082" cy="892.3804438347299" r="42" fill="var(--icon-pad-bg)" stroke="var(--accent-3)" filter="url(#svg1c0dfc52-drop-shadow)" stroke-opacity="1.0"/>
    <circle id="ITEM_5_STROKE" cx="1255.6823004558082" cy="892.3804438347299" r="34" fill="none" stroke="var(--accent-5)" stroke-width="3" stroke-dasharray="6 4" opacity="0.95"/>
    <!-- Node Icon Placeholder -->
    <circle id="ITEM_5_PAD" cx="1259.68" cy="896.38" r="44.80" fill="var(--icon-pad-bg)" stroke="var(--primary-text)" stroke-width="2" opacity="0.9"/>
    <circle id="ITEM_5_PAD_INNER" cx="1259.68" cy="896.38" r="34.94" fill="var(--accent-3)" fill-opacity="0.22"/>
    <g id="ITEM_5_ICON" transform="translate(1231.6823004558082, 868.3804438347299)" data-icon-size="56" stroke-dasharray="6 4">
      <g transform="translate(-13.415111111111106,-13.415111111111106) scale(3.451259259259259)" vector-effect="non-scaling-stroke" stroke-width="2.38" stroke-linecap="round" stroke-linejoin="round" stroke-opacity="1.0">
        <rect width="8" height="8" x="3" y="3" rx="2" vector-effect="non-scaling-stroke" fill="none" stroke="#f1f5f9"/>
        <path d="M7 11v4a2 2 0 0 0 2 2h4" vector-effect="non-scaling-stroke" fill="none" stroke="#f1f5f9"/>
        <rect width="8" height="8" x="13" y="13" rx="2" vector-effect="non-scaling-stroke" fill="none" stroke="#f1f5f9"/>
      </g>
    </g>
    <line x1="1286.5361057207622" y1="929.1505771044409" x2="1315.6823004558082" y2="892.3804438347299" stroke="var(--accent-5)" stroke-width="2" stroke-dasharray="2 2" opacity="0.5"/>
    <circle cx="1315.6823004558082" cy="892.3804438347299" r="3" fill="var(--accent-5)"/>
    <!-- Node 5 Frames -->
    <rect id="ITEM_5_HEAD_FRAME" x="1325.6823004558082" y="852.3804438347299" width="260" height="40" fill="none" pointer-events="none"/>
    <rect id="ITEM_5_BODY_FRAME" x="1325.7" y="892.3804438347299" width="380" height="120" fill="none" pointer-events="none"/>
    <rect id="ITEM_5_TEXT_BG" x="1307.6823004558082" y="838.3804438347299" width="416.0176995441918" height="192" rx="22" fill="var(--panel)" fill-opacity="0.94" stroke="var(--primary-text)" stroke-width="2"/>
    <text id="ITEM_5_HEAD" x="1325.6823004558082" y="852.3804438347299" font-family="var(--font-heading)" font-weight="bold" font-size="28" fill="var(--accent-3)" text-anchor="start" data-bg-id="ITEM_5_TEXT_BG" fill-opacity="1.0" stroke="none" style="font-size: 30px; font-family: Inter, Segoe UI, Kalam, Roboto, Helvetica, Arial, sans-serif; font-weight: 700; letter-spacing:-0.4px;" data-final-font-size="30">
      <tspan x="1325.6823004558082" dy="28.25px">Self-Reinforce</tspan>
    </text>
    <text id="ITEM_5_BODY" x="1325.7" y="892.3804438347299" font-family="var(--font-body)" font-size="20" fill="var(--primary-text)" opacity="0.8" text-anchor="start" data-bg-id="ITEM_5_TEXT_BG" style="font-size: 26px; font-family: Inter, Segoe UI, Kalam, Roboto, Helvetica, Arial, sans-serif; font-weight: 400;" data-final-font-size="26">
      <tspan x="1325.7" dy="32.84px">Cycle repeats making claims</tspan>
      <tspan x="1325.7" dy="29.90px">seem authoritative</tspan>
    </text>
  </g>
</svg>
